<svg xmlns="http://www.w3.org/2000/svg" xmlns:xlink="http://www.w3.org/1999/xlink" width="108" height="81" version="1.1" viewBox="0 0 108 81"><title>material usage</title><desc>Created with Sketch.</desc><defs><path id="path-1" d="M28.3343328,11.6408451 L38.7978142,21.943662 L24.0437158,21.943662 C24.0437158,17.9287715 25.6811506,14.2904521 28.3343328,11.6408451 Z"/><filter id="filter-2" width="194.9%" height="235.9%" x="-47.4%" y="-87.4%" filterUnits="objectBoundingBox"><feOffset dx="0" dy="-2" in="SourceAlpha" result="shadowOffsetOuter1"/><feGaussianBlur in="shadowOffsetOuter1" result="shadowBlurOuter1" stdDeviation="2"/><feColorMatrix in="shadowBlurOuter1" type="matrix" values="0 0 0 0 0 0 0 0 0 0 0 0 0 0 0 0 0 0 0.5 0"/></filter><path id="path-3" d="M73.7704918,23.9363958 C73.7704918,16.4229813 79.8868204,10.3321555 87.431694,10.3321555 L87.431694,23.9363958 L73.7704918,23.9363958 Z"/><filter id="filter-4" width="202.5%" height="202.9%" x="-51.2%" y="-36.8%" filterUnits="objectBoundingBox"><feOffset dx="0" dy="2" in="SourceAlpha" result="shadowOffsetOuter1"/><feGaussianBlur in="shadowOffsetOuter1" result="shadowBlurOuter1" stdDeviation="2"/><feColorMatrix in="shadowBlurOuter1" type="matrix" values="0 0 0 0 0 0 0 0 0 0 0 0 0 0 0 0 0 0 0.5 0"/></filter><path id="path-5" d="M56.3253101,64.2459325 C56.3253101,56.7325181 62.4416387,50.6416922 69.9865123,50.6416922 L69.9865123,64.2459325 L56.3253101,64.2459325 Z"/><filter id="filter-6" width="202.5%" height="202.9%" x="-51.2%" y="-36.8%" filterUnits="objectBoundingBox"><feOffset dx="0" dy="2" in="SourceAlpha" result="shadowOffsetOuter1"/><feGaussianBlur in="shadowOffsetOuter1" result="shadowBlurOuter1" stdDeviation="2"/><feColorMatrix in="shadowBlurOuter1" type="matrix" values="0 0 0 0 0 0 0 0 0 0 0 0 0 0 0 0 0 0 0.5 0"/></filter><path id="path-7" d="M65.3544106,46.0289046 L74.9454459,55.579949 L61.4215457,55.579949 C61.4215457,51.8580157 62.922451,48.4851759 65.3544106,46.0289046 Z"/><filter id="filter-8" width="203.5%" height="246.6%" x="-51.8%" y="-52.4%" filterUnits="objectBoundingBox"><feOffset dx="0" dy="2" in="SourceAlpha" result="shadowOffsetOuter1"/><feGaussianBlur in="shadowOffsetOuter1" result="shadowBlurOuter1" stdDeviation="2"/><feColorMatrix in="shadowBlurOuter1" type="matrix" values="0 0 0 0 0 0 0 0 0 0 0 0 0 0 0 0 0 0 0.5 0"/></filter></defs><g id="0419-data-collection-update" fill="none" fill-rule="evenodd" stroke="none" stroke-width="1"><g id="4.-collect-data-updated" transform="translate(-585.000000, -330.000000)"><g id="material-usage" transform="translate(585.000000, 330.000000)"><rect id="Rectangle-Copy-14" width="100" height="78" x="8" y="3" fill="#CCC"/><g id="Group"><rect id="Rectangle" width="103" height="78" x="0" y="0" fill="#E5E5E5"/><ellipse id="Oval-Copy-3" cx="26.776" cy="23.664" fill="#2671E7" rx="13.661" ry="13.604"/><rect id="Rectangle" width="10.109" height="1.905" x="25.137" y="57.131" fill="#CCC" rx=".952"/><rect id="Rectangle-Copy-7" width="7.377" height="1.905" x="25.137" y="52.777" fill="#CCC" rx=".952"/><rect id="Rectangle-Copy-6" width="6.831" height="1.905" x="25.137" y="61.212" fill="#CCC" rx=".952"/><ellipse id="Oval" cx="21.721" cy="62.164" fill="#E8F2FC" rx="1.23" ry="1.224"/><ellipse id="Oval-Copy-6" cx="21.721" cy="58.083" fill="#2671E7" rx="1.23" ry="1.224"/><ellipse id="Oval-Copy-7" cx="21.721" cy="53.73" fill="#104CAA" rx="1.23" ry="1.224"/><ellipse id="Oval-Copy-4" cx="73.77" cy="23.936" fill="#2671E7" rx="13.661" ry="13.604"/><ellipse id="Oval-Copy-5" cx="72.951" cy="57.675" fill="#2671E7" rx="13.661" ry="13.604"/><g id="Combined-Shape" transform="translate(31.420765, 16.792254) rotate(90.000000) translate(-31.420765, -16.792254)"><use fill="#000" fill-opacity="1" filter="url(#filter-2)" xlink:href="#path-1"/><use fill="#E8F2FC" fill-rule="evenodd" xlink:href="#path-1"/></g><g id="Combined-Shape-Copy" transform="translate(80.601093, 17.134276) scale(-1, 1) translate(-80.601093, -17.134276)"><use fill="#000" fill-opacity="1" filter="url(#filter-4)" xlink:href="#path-3"/><use fill="#E8F2FC" fill-rule="evenodd" xlink:href="#path-3"/></g><g id="Combined-Shape-Copy-2" transform="translate(63.155911, 57.443812) scale(1, -1) rotate(-46.000000) translate(-63.155911, -57.443812)"><use fill="#000" fill-opacity="1" filter="url(#filter-6)" xlink:href="#path-5"/><use fill="#E8F2FC" fill-rule="evenodd" xlink:href="#path-5"/></g><g id="Combined-Shape-Copy-3" transform="translate(68.183496, 50.804427) scale(-1, 1) rotate(90.000000) translate(-68.183496, -50.804427)"><use fill="#000" fill-opacity="1" filter="url(#filter-8)" xlink:href="#path-7"/><use fill="#104CAA" fill-rule="evenodd" xlink:href="#path-7"/></g></g></g></g></g></svg>