<svg xmlns="http://www.w3.org/2000/svg" xmlns:xlink="http://www.w3.org/1999/xlink" width="108" height="81" version="1.1" viewBox="0 0 108 81"><title>number of slices</title><desc>Created with Sketch.</desc><g id="0419-data-collection-update" fill="none" fill-rule="evenodd" stroke="none" stroke-width="1"><g id="4.-collect-data-updated" transform="translate(-762.000000, -330.000000)"><g id="number-of-slices" transform="translate(762.000000, 330.000000)"><rect id="Rectangle" width="100" height="78" x="8" y="3" fill="#CCC"/><rect id="Rectangle" width="103" height="78" x="0" y="0" fill="#E5E5E5"/><rect id="Rectangle" width="3" height="16" x="13" y="49" fill="#104CAA"/><rect id="Rectangle-Copy-9" width="3" height="26" x="26" y="39" fill="#104CAA"/><rect id="Rectangle-Copy-10" width="3" height="6" x="39" y="59" fill="#104CAA"/><rect id="Rectangle-Copy-11" width="3" height="9" x="52" y="56" fill="#104CAA"/><rect id="Rectangle-Copy-12" width="3" height="16" x="65" y="49" fill="#104CAA"/><rect id="Rectangle-Copy-13" width="3" height="14" x="78" y="51" fill="#104CAA"/><rect id="Rectangle-Copy-15" width="3" height="35" x="91" y="30" fill="#104CAA"/><polyline id="Path-2" stroke="#0063FF" points="14 44.133 27.5 30.5 40.5 42.5 53.5 48.5 66.5 35.5 79.429 32.5 92.5 20.5"/><circle id="Oval" cx="14.5" cy="43.5" r="2" fill="#FFF" stroke="#0063FF"/><circle id="Oval-Copy-8" cx="27.5" cy="30.5" r="2" fill="#FFF" stroke="#0063FF"/><circle id="Oval-Copy-9" cx="40.5" cy="42.5" r="2" fill="#FFF" stroke="#0063FF"/><circle id="Oval-Copy-10" cx="53.5" cy="48.5" r="2" fill="#FFF" stroke="#0063FF"/><circle id="Oval-Copy-11" cx="66.5" cy="35.5" r="2" fill="#FFF" stroke="#0063FF"/><circle id="Oval-Copy-12" cx="79.5" cy="32.5" r="2" fill="#FFF" stroke="#0063FF"/><circle id="Oval-Copy-13" cx="92.5" cy="20.5" r="2" fill="#FFF" stroke="#0063FF"/><rect id="Rectangle" width="1" height="56" x="7" y="10" fill="#CCC"/><rect id="Rectangle" width="92" height="1" x="7" y="65" fill="#CCC"/></g></g></g></svg>