<svg xmlns="http://www.w3.org/2000/svg" xmlns:xlink="http://www.w3.org/1999/xlink" width="108" height="81" version="1.1" viewBox="0 0 108 81"><title>Print settings</title><desc>Created with Sketch.</desc><g id="0419-data-collection-update" fill="none" fill-rule="evenodd" stroke="none" stroke-width="1"><g id="4.-collect-data-updated" transform="translate(-672.000000, -447.000000)"><g id="Print-settings" transform="translate(672.000000, 447.000000)"><rect id="Rectangle" width="100" height="78" x="8" y="3" fill="#CCC"/><rect id="Rectangle" width="103" height="78" x="0" y="0" fill="#E5E5E5"/><rect id="Rectangle" width="1" height="13" x="29" y="40" fill="#2671E7"/><rect id="Rectangle" width="12" height="1" x="18" y="53" fill="#2671E7"/><rect id="Rectangle-Copy-5" width="29" height="1" x="18" y="55" fill="#999"/><rect id="Rectangle-Copy-27" width="29" height="1" x="18" y="57" fill="#999"/><rect id="Rectangle-Copy-28" width="2" height="32" x="64" y="23" fill="#999" rx="1"/><rect id="Rectangle-Copy-29" width="2" height="32" x="74" y="23" fill="#999" rx="1"/><rect id="Rectangle-Copy-30" width="2" height="32" x="84" y="23" fill="#999" rx="1"/><rect id="Rectangle" width="14" height="12" x="25" y="25" fill="#999"/><path id="Path-4" fill="#999" d="M19.618034,25 L24,25 L24,37 L18.7236068,26.4472136 C18.4766175,25.9532351 18.6768419,25.3525621 19.1708204,25.1055728 C19.3096758,25.0361451 19.4627889,25 19.618034,25 Z"/><path id="Path-4" fill="#999" d="M41.618034,25 L46,25 L46,37 L40.7236068,26.4472136 C40.4766175,25.9532351 40.6768419,25.3525621 41.1708204,25.1055728 C41.3096758,25.0361451 41.4627889,25 41.618034,25 Z" transform="translate(43.000000, 31.000000) scale(-1, 1) translate(-43.000000, -31.000000)"/><path id="Path-5" fill="#999" d="M28,37 L28.7,37.9333333 C29.0313708,38.3751611 29.6581722,38.4647042 30.1,38.1333333 C30.1758057,38.0764791 30.2431458,38.009139 30.3,37.9333333 L31,37 L28,37 Z"/><polygon id="Path-6" fill="#999" points="25 24 39 24 37 20 27 20"/><circle id="Oval-Copy" cx="65" cy="27" r="3" fill="#104CAA"/><circle id="Oval-Copy-2" cx="75" cy="43" r="3" fill="#4E93FF"/><circle id="Oval-Copy-16" cx="85" cy="50" r="3" fill="#2671E7"/></g></g></g></svg>