<svg xmlns="http://www.w3.org/2000/svg" xmlns:xlink="http://www.w3.org/1999/xlink" id="Layer_1" x="0" y="0" version="1.1" viewBox="0 0 325.5 197.2" style="enable-background:new 0 0 325.5 197.2" xml:space="preserve"><style type="text/css">.st0{fill:#555557;stroke:#f3f3f3;stroke-width:2;stroke-linecap:round;stroke-linejoin:round}.st1{fill:#1f1f20}.st2{fill:none;stroke:#f3f3f3;stroke-width:2;stroke-linecap:round;stroke-linejoin:round}.st3{fill:#f3f3f3}.st4{fill:none;stroke:#f3f3f3;stroke-width:2;stroke-linecap:round}</style><g><path d="M47.7,9.3h230.1c3.4,0,6.1,2.7,6.1,6.1v157.1c0,3.4-2.7,6.1-6.1,6.1H47.7c-3.4,0-6.1-2.7-6.1-6.1V15.4 C41.6,12,44.3,9.3,47.7,9.3z" class="st0"/><rect width="219.7" height="155.9" x="52.9" y="20.6" class="st1"/><path d="M51.9,17.6h221.7c1.1,0,2,0.9,2,2v151.9c0,1.1-0.9,2-2,2H51.9c-1.1,0-2-0.9-2-2V19.6 C49.9,18.5,50.8,17.6,51.9,17.6z" class="st2"/><line x1="14.6" x2="310.9" y1="187.9" y2="187.9" class="st2"/><path d="M305.6,172.4c0,8.5-6.9,15.5-15.5,15.5l0,0H35.3c-8.5,0-15.5-6.9-15.5-15.5c0-0.6,0.4-1,1-1h283.8 C305.2,171.4,305.6,171.9,305.6,172.4z" class="st0"/></g><path d="M185.2,172.4h-45v0.6c0,2.4,2,4.4,4.4,4.4h36.2c2.4,0,4.4-2,4.4-4.4L185.2,172.4z" class="st3"/><g><polygon points="180.2 140.5 117.4 140.5 117.4 77.7 144.3 50.8 207.2 50.8 207.2 113.6" class="st4"/><path d="M175.7,73.2h-13.5c-12.4-0.3-22.6,9.6-22.9,22c-0.3,12.4,9.6,22.6,22,22.9c0.3,0,0.6,0,0.9,0h13.5" class="st4"/></g></svg>