<svg xmlns="http://www.w3.org/2000/svg" width="700" height="1010"><defs><path id="stack-header" d="m0,50 v-30 a20,20 0 0 1 20,-20 h260 a20,20 0 0 1 20,20 v30 z"/><marker id="arrow" markerHeight="3" markerWidth="3" orient="auto-start-reverse" refX="2" refY="1.5"><polygon points="0 0 3 1.5 0 3"/></marker></defs><g fill="silver" stroke="#000" stroke-width="5"><use x="200" y="555" href="#stack-header"/><use x="5" y="5" href="#stack-header"/><use x="395" y="5" href="#stack-header"/></g><g fill="none" stroke="#000" stroke-width="10"><rect width="300" height="450" x="200" y="555" rx="20"/><rect width="300" height="450" x="5" y="5" rx="20"/><rect width="300" height="450" x="395" y="5" rx="20"/></g><g dominant-baseline="middle" font-family="sans-serif" font-size="25" text-anchor="middle"><text x="350" y="582.5">Global stack</text><text x="350" y="630">User</text><text x="350" y="680">Custom</text><text x="350" y="730">Intent</text><text x="350" y="780">Quality</text><text x="350" y="830">Material</text><text x="350" y="880">Variant</text><text x="350" y="930">Definition changes</text><text x="350" y="980">Printer</text><text x="155" y="32.5">Left extruder</text><text x="155" y="80">User</text><text x="155" y="130">Custom</text><text x="155" y="180">Intent</text><text x="155" y="230">Quality</text><text x="155" y="280">Material</text><text x="155" y="330">Nozzle</text><text x="155" y="380">Definition changes</text><text x="155" y="430">Extruder</text><text x="545" y="32.5">Right extruder</text><text x="545" y="80">User</text><text x="545" y="130">Custom</text><text x="545" y="180">Intent</text><text x="545" y="230">Quality</text><text x="545" y="280">Material</text><text x="545" y="330">Nozzle</text><text x="545" y="380">Definition changes</text><text x="545" y="430">Extruder</text></g><g stroke="#000" stroke-width="5" marker-end="url(#arrow)"><line x1="155" x2="345" y1="455" y2="545"/><line x1="545" x2="355" y1="455" y2="545"/></g></svg>