<svg xmlns="http://www.w3.org/2000/svg" width="1000" height="1000"><defs><marker id="arrow" markerHeight="3" markerWidth="3" orient="auto-start-reverse" refX="2" refY="1.5"><polygon points="0 0 3 1.5 0 3"/></marker></defs><g stroke="#000" stroke-width="5" marker-end="url(#arrow)"><line x1="475" x2="475" y1="400" y2="307.5"/><line x1="475" x2="475" y1="250" y2="210"/><line x1="525" x2="525" y1="200" y2="242.5"/><line x1="525" x2="525" y1="300" y2="390"/><line x1="100" x2="142.5" y1="425" y2="425"/><line x1="300" x2="390" y1="425" y2="425"/><line x1="350" x2="390" y1="575" y2="575"/><line x1="600" x2="692.5" y1="500" y2="500"/><line x1="900" x2="945" y1="500" y2="500"/><line x1="500" x2="500" y1="600" y2="690"/></g><g fill="none" stroke="#000"><g stroke-width="10"><rect width="200" height="200" x="400" y="400" rx="20"/><rect width="300" height="200" x="350" y="700" rx="20"/><rect width="400" height="195" x="300" y="5" rx="20"/></g><g stroke-width="5"><rect width="150" height="100" x="150" y="350" rx="20"/><rect width="250" height="100" x="100" y="550" rx="20"/><rect width="140" height="50" x="430" y="250" rx="20"/><rect width="200" height="100" x="700" y="450" rx="20"/></g></g><g dominant-baseline="middle" font-family="sans-serif" text-anchor="middle"><g font-size="50"><text x="500" y="500">Cura</text><text x="500" y="800">Uranium</text><text x="500" y="102.5">CuraEngine</text></g><g font-size="25"><text x="225" y="400">libSavitar</text><text x="225" y="600">fdm_materials</text><text x="500" y="275">libArcus</text><text x="800" y="500">libCharon</text><g text-anchor="start"><text x="645" y="490" transform="rotate(-90, 645, 490)">G-code</text><text x="950" y="500">UFP</text><text x="535" y="345">G-code</text><text x="345" y="415" transform="rotate(-90, 345, 415)">Model</text><text x="510" y="645">Built upon</text></g><g text-anchor="end"><text x="465" y="345">Scene</text><text x="90" y="425">3MF</text></g></g></g></svg>